<?xml version="1.0" standalone="no"?>
<!DOCTYPE svg PUBLIC "-//W3C//DTD SVG 20010904//EN"
 "http://www.w3.org/TR/2001/REC-SVG-20010904/DTD/svg10.dtd">
<svg version="1.0" xmlns="http://www.w3.org/2000/svg"
 width="260.000000pt" height="260.000000pt" viewBox="0 0 260.000000 260.000000"
 preserveAspectRatio="xMidYMid meet">
<metadata>
Created by potrace 1.11, written by Peter Selinger 2001-2013
</metadata>
<g transform="translate(0.000000,260.000000) scale(0.100000,-0.100000)"
fill="#000000" stroke="none">
<path d="M0 1300 l0 -1300 1300 0 1300 0 0 1300 0 1300 -1300 0 -1300 0 0
-1300z m1132 286 c75 -236 139 -430 141 -432 2 -2 66 192 142 431 l138 435
153 0 c139 0 154 -2 163 -18 8 -15 -44 -185 -227 -740 l-236 -722 -131 0 -131
0 -186 562 c-312 942 -294 884 -279 902 12 14 36 16 165 14 l150 -3 138 -429z"/>
</g>
</svg>
